<svg width="34" height="42" viewBox="0 0 34 42" fill="none" xmlns="http://www.w3.org/2000/svg">
<g id="Group">
<path id="Vector" d="M22.9997 35C22.9997 36.5913 22.3676 38.1175 21.2424 39.2427C20.1172 40.3679 18.591 41 16.9997 41C15.4084 41 13.8823 40.3679 12.7571 39.2427C11.6319 38.1175 10.9997 36.5913 10.9997 35M18.4417 7.00603L15.5097 7.00004C8.82173 6.98404 3.01573 12.418 2.96973 19V26.58C2.96973 28.16 2.76973 29.702 1.90773 31.016L1.33373 31.892C0.459732 33.22 1.39973 35 2.96973 35H31.0297C32.5997 35 33.5377 33.22 32.6657 31.892L32.0917 31.016C31.2317 29.702 31.0297 28.158 31.0297 26.578V19.002C30.9497 12.418 25.1297 7.02203 18.4417 7.00603Z" stroke="black" stroke-width="2" stroke-linecap="round" stroke-linejoin="round"/>
<path id="Vector_2" d="M17 1C18.0609 1 19.0783 1.42143 19.8284 2.17157C20.5786 2.92172 21 3.93913 21 5V7H13V5C13 3.93913 13.4214 2.92172 14.1716 2.17157C14.9217 1.42143 15.9391 1 17 1Z" stroke="black" stroke-width="2" stroke-linecap="round" stroke-linejoin="round"/>
</g>
</svg>
