<svg width="21" height="12" viewBox="0 0 21 12" fill="none" xmlns="http://www.w3.org/2000/svg">
<g id="logos:codesee-icon">
<path id="Vector" d="M8.0519 0L9.0108 2.43641C7.54719 3.01412 5.62939 4.34539 3.76194 6.0031C5.62939 7.66082 7.54719 8.96702 9.0108 9.59494L8.07708 11.9811C5.73026 10.9765 2.85356 8.76604 0.00195312 5.97804L0.173033 5.81151C2.96739 3.10286 5.752 0.98449 8.0519 0ZM12.9474 0C15.2942 1.00473 18.1458 3.18996 20.9974 5.97796L20.8262 6.14457C18.031 8.85396 15.2221 10.9966 12.9222 11.9811L11.9885 9.59494C13.4522 8.96702 15.37 7.66082 17.2374 6.0031L17.0858 5.86947C15.2667 4.27396 13.4126 2.99845 11.9885 2.43641L12.9474 0ZM10.4997 4.06906C11.6006 4.06906 12.4933 4.95747 12.4933 6.05339C12.4933 7.14922 11.6006 8.03763 10.4997 8.03763C9.39864 8.03763 8.50609 7.14922 8.50609 6.05339C8.50609 4.95747 9.39864 4.06906 10.4997 4.06906Z" fill="#808080"/>
</g>
</svg>
