<svg width="24" height="24" viewBox="0 0 24 24" fill="none" xmlns="http://www.w3.org/2000/svg">
<g id="typcn:arrow-back">
<path id="Vector" d="M12 9.05887V6.49987C11.9997 6.30224 11.9409 6.10914 11.831 5.94488C11.7211 5.78063 11.565 5.65258 11.3825 5.57687C11.2 5.50115 10.9991 5.48117 10.8052 5.51943C10.6113 5.55769 10.4331 5.65248 10.293 5.79187L4 11.9999L10.293 18.2069C10.3857 18.3001 10.4958 18.374 10.6171 18.4245C10.7385 18.4749 10.8686 18.5009 11 18.5009C11.1314 18.5009 11.2615 18.4749 11.3829 18.4245C11.5042 18.374 11.6143 18.3001 11.707 18.2069C11.8945 18.0194 11.9999 17.7651 12 17.4999V15.0109C14.75 15.0789 17.755 15.5769 20 18.9999V17.9999C20 13.3669 16.5 9.55687 12 9.05887Z" fill="white"/>
</g>
</svg>
