<svg width="40" height="40" viewBox="0 0 40 40" fill="none" xmlns="http://www.w3.org/2000/svg">
<g id="material-symbols:dashboard-rounded">
<path id="Vector" d="M23.3333 15C22.8611 15 22.4656 14.84 22.1467 14.52C21.8278 14.2 21.6678 13.8044 21.6667 13.3333V6.66667C21.6667 6.19444 21.8267 5.79889 22.1467 5.48C22.4667 5.16111 22.8622 5.00111 23.3333 5H33.3333C33.8056 5 34.2017 5.16 34.5217 5.48C34.8417 5.8 35.0011 6.19556 35 6.66667V13.3333C35 13.8056 34.84 14.2017 34.52 14.5217C34.2 14.8417 33.8044 15.0011 33.3333 15H23.3333ZM6.66667 21.6667C6.19444 21.6667 5.79889 21.5067 5.48 21.1867C5.16111 20.8667 5.00111 20.4711 5 20V6.66667C5 6.19444 5.16 5.79889 5.48 5.48C5.8 5.16111 6.19556 5.00111 6.66667 5H16.6667C17.1389 5 17.535 5.16 17.855 5.48C18.175 5.8 18.3344 6.19556 18.3333 6.66667V20C18.3333 20.4722 18.1733 20.8683 17.8533 21.1883C17.5333 21.5083 17.1378 21.6678 16.6667 21.6667H6.66667ZM23.3333 35C22.8611 35 22.4656 34.84 22.1467 34.52C21.8278 34.2 21.6678 33.8044 21.6667 33.3333V20C21.6667 19.5278 21.8267 19.1322 22.1467 18.8133C22.4667 18.4944 22.8622 18.3344 23.3333 18.3333H33.3333C33.8056 18.3333 34.2017 18.4933 34.5217 18.8133C34.8417 19.1333 35.0011 19.5289 35 20V33.3333C35 33.8056 34.84 34.2017 34.52 34.5217C34.2 34.8417 33.8044 35.0011 33.3333 35H23.3333ZM6.66667 35C6.19444 35 5.79889 34.84 5.48 34.52C5.16111 34.2 5.00111 33.8044 5 33.3333V26.6667C5 26.1944 5.16 25.7989 5.48 25.48C5.8 25.1611 6.19556 25.0011 6.66667 25H16.6667C17.1389 25 17.535 25.16 17.855 25.48C18.175 25.8 18.3344 26.1956 18.3333 26.6667V33.3333C18.3333 33.8056 18.1733 34.2017 17.8533 34.5217C17.5333 34.8417 17.1378 35.0011 16.6667 35H6.66667Z" fill="#393E46"/>
</g>
</svg>
