<svg width="40" height="40" viewBox="0 0 40 40" fill="none" xmlns="http://www.w3.org/2000/svg">
<g id="mdi:quiz">
<path id="Vector" d="M26.6663 33.3332V36.6666H6.66634C4.83301 36.6666 3.33301 35.1666 3.33301 33.3332V11.6666H6.66634V33.3332H26.6663ZM33.333 3.33325H13.333C11.4997 3.33325 9.99967 4.83325 9.99967 6.66658V26.6666C9.99967 28.4999 11.4997 29.9999 13.333 29.9999H33.333C35.1663 29.9999 36.6663 28.4999 36.6663 26.6666V6.66658C36.6663 4.83325 35.1663 3.33325 33.333 3.33325ZM24.9997 23.3332H21.6663V19.9999H24.9997V23.3332ZM27.9997 14.6666C27.4997 15.3333 26.833 15.8332 26.1663 16.1666C25.833 16.4999 25.4997 16.6666 25.333 16.9999C24.9997 17.3332 24.9997 17.8332 24.9997 18.3332H21.6663C21.6663 17.4999 21.833 16.8333 22.1663 16.3333C22.4997 15.8333 22.9997 15.3332 23.833 14.8332C24.333 14.4999 24.6663 14.1666 24.833 13.8333C25.1663 13.4999 25.1663 12.9999 25.1663 12.4999C25.1663 11.9999 24.9997 11.4999 24.6663 11.1666C24.333 10.8333 23.9997 10.6666 23.333 10.6666C22.833 10.6666 22.4997 10.8333 22.1663 10.9999C21.833 11.3333 21.6663 11.6666 21.6663 12.1666H18.4997C18.4997 10.8333 18.833 9.83325 19.833 9.16658C20.9997 8.66658 22.1663 8.33325 23.6663 8.33325C25.1663 8.33325 26.4997 8.66658 27.333 9.49992C28.1663 10.3333 28.6663 11.3333 28.6663 12.4999C28.6663 13.3333 28.333 13.9999 27.9997 14.6666Z" fill="#A885D8"/>
</g>
</svg>
