<svg width="40" height="40" viewBox="0 0 40 40" fill="none" xmlns="http://www.w3.org/2000/svg">
<g id="clarity:users-solid" clip-path="url(#clip0_476_4505)">
<path id="Vector" d="M13.3329 17.9335H12.3662C11.047 17.8859 9.73215 18.1098 8.50314 18.5915C7.27413 19.0731 6.15723 19.8022 5.22174 20.7335L4.95508 21.0446V30.2446H9.48841V25.0224L10.0995 24.3335L10.3773 24.0113C11.8239 22.5252 13.6248 21.4316 15.6106 20.8335C14.6168 20.0767 13.8327 19.0784 13.3329 17.9335Z" fill="#393E46"/>
<path id="Vector_2" d="M34.8219 20.6998C33.8864 19.7685 32.7695 19.0394 31.5405 18.5578C30.3115 18.0761 28.9966 17.8522 27.6775 17.8998C27.2729 17.902 26.8687 17.9243 26.4664 17.9665C25.9572 19.0406 25.1946 19.9748 24.2441 20.6887C26.3643 21.2747 28.2849 22.4271 29.7997 24.0221L30.0775 24.3332L30.6775 25.0221V30.2554H35.0553V21.011L34.8219 20.6998Z" fill="#393E46"/>
<path id="Vector_3" d="M12.3329 15.7666H12.6773C12.5173 14.3924 12.7584 13.0013 13.3716 11.7612C13.9847 10.521 14.9438 9.48483 16.1329 8.77772C15.7018 8.11922 15.1072 7.58395 14.4071 7.22433C13.707 6.86471 12.9256 6.69306 12.1392 6.7262C11.3529 6.75934 10.5887 6.99612 9.92133 7.41337C9.25401 7.83061 8.70648 8.41401 8.33237 9.10645C7.95826 9.79888 7.77039 10.5766 7.78716 11.3634C7.80394 12.1503 8.02477 12.9193 8.42804 13.5952C8.83131 14.271 9.4032 14.8306 10.0877 15.219C10.7722 15.6074 11.5458 15.8115 12.3329 15.8111V15.7666Z" fill="#393E46"/>
<path id="Vector_4" d="M27.1444 14.9336C27.157 15.189 27.157 15.4448 27.1444 15.7002C27.3575 15.7344 27.5729 15.7529 27.7888 15.7558H27.9999C28.7835 15.714 29.5429 15.47 30.2042 15.0476C30.8655 14.6253 31.4061 14.0388 31.7735 13.3455C32.1409 12.6521 32.3225 11.8754 32.3006 11.091C32.2787 10.3067 32.0541 9.54131 31.6486 8.86951C31.2432 8.19771 30.6707 7.64234 29.9868 7.25748C29.303 6.87262 28.5312 6.67138 27.7465 6.67335C26.9618 6.67533 26.191 6.88045 25.5092 7.26874C24.8273 7.65704 24.2576 8.21528 23.8555 8.88912C24.8611 9.54571 25.688 10.4417 26.2621 11.4966C26.8361 12.5516 27.1393 13.7326 27.1444 14.9336Z" fill="#393E46"/>
<path id="Vector_5" d="M19.8553 19.9109C22.5984 19.9109 24.822 17.6872 24.822 14.9442C24.822 12.2012 22.5984 9.97754 19.8553 9.97754C17.1123 9.97754 14.8887 12.2012 14.8887 14.9442C14.8887 17.6872 17.1123 19.9109 19.8553 19.9109Z" fill="#393E46"/>
<path id="Vector_6" d="M20.1221 22.5554C18.6711 22.4974 17.2234 22.7333 15.8658 23.2488C14.5083 23.7644 13.2689 24.5489 12.2221 25.5554L11.9443 25.8665V32.8998C11.9487 33.1289 11.9981 33.3549 12.0898 33.5649C12.1815 33.7749 12.3137 33.9648 12.4788 34.1237C12.6438 34.2826 12.8386 34.4074 13.052 34.491C13.2653 34.5746 13.493 34.6153 13.7221 34.6109H26.4888C26.7179 34.6153 26.9456 34.5746 27.1589 34.491C27.3723 34.4074 27.5671 34.2826 27.7321 34.1237C27.8972 33.9648 28.0294 33.7749 28.1211 33.5649C28.2128 33.3549 28.2622 33.1289 28.2666 32.8998V25.8887L27.9999 25.5554C26.9603 24.5453 25.7253 23.7582 24.3706 23.2423C23.016 22.7264 21.5703 22.4927 20.1221 22.5554Z" fill="#393E46"/>
</g>
<defs>
<clipPath id="clip0_476_4505">
<rect width="40" height="40" fill="white"/>
</clipPath>
</defs>
</svg>
