<svg width="40" height="40" viewBox="0 0 40 40" fill="none" xmlns="http://www.w3.org/2000/svg">
<g id="iconoir:book-solid">
<path id="Vector" fill-rule="evenodd" clip-rule="evenodd" d="M34.5837 27.8567C34.5816 27.9366 34.5738 28.0162 34.5603 28.095C34.5955 28.2759 34.5902 28.4624 34.5448 28.6411C34.4994 28.8197 34.4151 28.9861 34.2979 29.1283C34.1806 29.2706 34.0334 29.3851 33.8667 29.4638C33.7 29.5425 33.518 29.5833 33.3337 29.5833H10.0003C9.72674 29.5833 9.45583 29.6372 9.20307 29.7419C8.95031 29.8466 8.72064 30.0001 8.52719 30.1935C8.33373 30.387 8.18027 30.6166 8.07558 30.8694C7.97088 31.1222 7.91699 31.3931 7.91699 31.6667C7.91699 31.9403 7.97088 32.2112 8.07558 32.4639C8.18027 32.7167 8.33373 32.9464 8.52719 33.1398C8.72064 33.3333 8.95031 33.4867 9.20307 33.5914C9.45583 33.6961 9.72674 33.75 10.0003 33.75H33.3337C33.6652 33.75 33.9831 33.8817 34.2175 34.1161C34.452 34.3505 34.5837 34.6685 34.5837 35C34.5837 35.3315 34.452 35.6495 34.2175 35.8839C33.9831 36.1183 33.6652 36.25 33.3337 36.25H10.0003C8.78475 36.25 7.61896 35.7671 6.75942 34.9076C5.89988 34.048 5.41699 32.8822 5.41699 31.6667V8.33333C5.41699 7.11776 5.89988 5.95197 6.75942 5.09243C7.61896 4.23289 8.78475 3.75 10.0003 3.75H32.3337C33.577 3.75 34.5837 4.75667 34.5837 6V27.8567ZM15.0003 10.4167C14.6688 10.4167 14.3509 10.5484 14.1164 10.7828C13.882 11.0172 13.7503 11.3351 13.7503 11.6667C13.7503 11.9982 13.882 12.3161 14.1164 12.5506C14.3509 12.785 14.6688 12.9167 15.0003 12.9167H25.0003C25.3318 12.9167 25.6498 12.785 25.8842 12.5506C26.1186 12.3161 26.2503 11.9982 26.2503 11.6667C26.2503 11.3351 26.1186 11.0172 25.8842 10.7828C25.6498 10.5484 25.3318 10.4167 25.0003 10.4167H15.0003Z" fill="#393E46"/>
</g>
</svg>
