<svg width="40" height="40" viewBox="0 0 40 40" fill="none" xmlns="http://www.w3.org/2000/svg">
<g id="mdi:quiz">
<path id="Vector" d="M26.6663 33.3335V36.6668H6.66634C4.83301 36.6668 3.33301 35.1668 3.33301 33.3335V11.6668H6.66634V33.3335H26.6663ZM33.333 3.3335H13.333C11.4997 3.3335 9.99967 4.8335 9.99967 6.66683V26.6668C9.99967 28.5002 11.4997 30.0002 13.333 30.0002H33.333C35.1663 30.0002 36.6663 28.5002 36.6663 26.6668V6.66683C36.6663 4.8335 35.1663 3.3335 33.333 3.3335ZM24.9997 23.3335H21.6663V20.0002H24.9997V23.3335ZM27.9997 14.6668C27.4997 15.3335 26.833 15.8335 26.1663 16.1668C25.833 16.5002 25.4997 16.6668 25.333 17.0002C24.9997 17.3335 24.9997 17.8335 24.9997 18.3335H21.6663C21.6663 17.5002 21.833 16.8335 22.1663 16.3335C22.4997 15.8335 22.9997 15.3335 23.833 14.8335C24.333 14.5002 24.6663 14.1668 24.833 13.8335C25.1663 13.5002 25.1663 13.0002 25.1663 12.5002C25.1663 12.0002 24.9997 11.5002 24.6663 11.1668C24.333 10.8335 23.9997 10.6668 23.333 10.6668C22.833 10.6668 22.4997 10.8335 22.1663 11.0002C21.833 11.3335 21.6663 11.6668 21.6663 12.1668H18.4997C18.4997 10.8335 18.833 9.8335 19.833 9.16683C20.9997 8.66683 22.1663 8.3335 23.6663 8.3335C25.1663 8.3335 26.4997 8.66683 27.333 9.50016C28.1663 10.3335 28.6663 11.3335 28.6663 12.5002C28.6663 13.3335 28.333 14.0002 27.9997 14.6668Z" fill="#A885D8"/>
</g>
</svg>
