<svg width="40" height="40" viewBox="0 0 40 40" fill="none" xmlns="http://www.w3.org/2000/svg">
<g id="ant-design:setting-filled">
<path id="Vector" d="M20.0192 15.2578C18.8512 15.2578 17.7575 15.7109 16.9293 16.5391C16.1051 17.3672 15.6481 18.4609 15.6481 19.6289C15.6481 20.7969 16.1051 21.8906 16.9293 22.7188C17.7575 23.543 18.8512 24 20.0192 24C21.1872 24 22.2809 23.543 23.109 22.7188C23.9332 21.8906 24.3903 20.7969 24.3903 19.6289C24.3903 18.4609 23.9332 17.3672 23.109 16.5391C22.7045 16.1315 22.2231 15.8083 21.6927 15.5884C21.1623 15.3684 20.5934 15.2561 20.0192 15.2578ZM36.1247 24.457L33.57 22.2734C33.6911 21.5312 33.7536 20.7734 33.7536 20.0195C33.7536 19.2656 33.6911 18.5039 33.57 17.7656L36.1247 15.582C36.3176 15.4168 36.4558 15.1968 36.5207 14.9512C36.5855 14.7056 36.5741 14.446 36.4879 14.207L36.4528 14.1055C35.7497 12.1394 34.6962 10.317 33.3434 8.72656L33.2731 8.64453C33.1088 8.45138 32.8899 8.31253 32.6451 8.24628C32.4004 8.18003 32.1413 8.1895 31.902 8.27344L28.7301 9.40234C27.5582 8.44141 26.2536 7.68359 24.8395 7.15625L24.2262 3.83984C24.1799 3.59001 24.0588 3.36017 23.8787 3.18085C23.6987 3.00154 23.4684 2.88124 23.2184 2.83594L23.1129 2.81641C21.0817 2.44922 18.9411 2.44922 16.9098 2.81641L16.8043 2.83594C16.5543 2.88124 16.324 3.00154 16.144 3.18085C15.964 3.36017 15.8428 3.59001 15.7965 3.83984L15.1793 7.17188C13.7787 7.7034 12.4738 8.45938 11.3161 9.41016L8.12075 8.27344C7.88155 8.18884 7.62227 8.17903 7.37737 8.24531C7.13246 8.3116 6.91353 8.45084 6.74965 8.64453L6.67934 8.72656C5.3289 10.3187 4.27569 12.1406 3.56997 14.1055L3.53481 14.207C3.35903 14.6953 3.50356 15.2422 3.89809 15.582L6.48403 17.7891C6.36293 18.5234 6.30434 19.2734 6.30434 20.0156C6.30434 20.7656 6.36293 21.5156 6.48403 22.2422L3.9059 24.4492C3.71292 24.6144 3.57479 24.8345 3.5099 25.0801C3.44501 25.3257 3.45642 25.5852 3.54262 25.8242L3.57778 25.9258C4.28481 27.8906 5.32778 29.707 6.68715 31.3047L6.75747 31.3867C6.92174 31.5799 7.14068 31.7187 7.38544 31.785C7.6302 31.8512 7.88929 31.8417 8.12856 31.7578L11.3239 30.6211C12.4879 31.5781 13.7848 32.3359 15.1872 32.8594L15.8043 36.1914C15.8506 36.4412 15.9718 36.6711 16.1518 36.8504C16.3318 37.0297 16.5621 37.15 16.8122 37.1953L16.9176 37.2148C18.9689 37.584 21.0695 37.584 23.1207 37.2148L23.2262 37.1953C23.4762 37.15 23.7065 37.0297 23.8866 36.8504C24.0666 36.6711 24.1878 36.4412 24.234 36.1914L24.8473 32.875C26.2614 32.3438 27.5661 31.5898 28.7379 30.6289L31.9098 31.7578C32.149 31.8424 32.4083 31.8522 32.6532 31.7859C32.8981 31.7197 33.117 31.5804 33.2809 31.3867L33.3512 31.3047C34.7106 29.6992 35.7536 27.8906 36.4606 25.9258L36.4957 25.8242C36.6637 25.3398 36.5192 24.7969 36.1247 24.457ZM20.0192 26.4961C16.2262 26.4961 13.152 23.4219 13.152 19.6289C13.152 15.8359 16.2262 12.7617 20.0192 12.7617C23.8122 12.7617 26.8864 15.8359 26.8864 19.6289C26.8864 23.4219 23.8122 26.4961 20.0192 26.4961Z" fill="#393E46"/>
</g>
</svg>
