<svg width="126" height="85" viewBox="0 0 126 85" fill="none" xmlns="http://www.w3.org/2000/svg">
<path d="M124.496 71.1054L124.092 71.1847L63.0969 83.2013L63 83.2199L62.9031 83.2013L1.90796 71.1847L1.50366 71.1054V1.95079L2.13214 2.11623L13.2226 5.02762C13.49 5.098 13.6499 5.37292 13.5799 5.64044C13.5095 5.90784 13.2356 6.06771 12.9681 5.99775L2.5061 3.24985V70.2811L62.4988 82.099V55.596H63.5012V82.099L123.494 70.2811V3.24985L113.033 5.99775C112.765 6.06802 112.49 5.90802 112.42 5.64044C112.35 5.37285 112.511 5.09788 112.778 5.02762L123.868 2.11623L124.496 1.95079V71.1054Z" fill="url(#paint0_linear_771_2525)"/>
<path d="M124.496 71.1054L124.786 72.581L126 72.3428V71.1054H124.496ZM124.092 71.1847L123.803 69.7092L123.801 69.7094L124.092 71.1847ZM63.0969 83.2013L63.3803 84.678L63.3876 84.6766L63.0969 83.2013ZM63 83.2199L62.7166 84.6966L63 84.751L63.2834 84.6966L63 83.2199ZM62.9031 83.2013L62.6124 84.6766L62.6197 84.678L62.9031 83.2013ZM1.90796 71.1847L2.19861 69.7094L2.19736 69.7092L1.90796 71.1847ZM1.50366 71.1054H0V72.3428L1.21427 72.581L1.50366 71.1054ZM1.50366 1.95079L1.88644 0.496671L0 8.43671e-05V1.95079H1.50366ZM2.13214 2.11623L1.74936 3.57036L1.75035 3.57062L2.13214 2.11623ZM13.2226 5.02762L13.6053 3.57347L13.6044 3.57323L13.2226 5.02762ZM13.5799 5.64044L15.034 6.02321L15.0346 6.02108L13.5799 5.64044ZM12.9681 5.99775L12.5861 7.45208L12.5876 7.45247L12.9681 5.99775ZM2.5061 3.24985L2.88809 1.79552L1.00244 1.30025V3.24985H2.5061ZM2.5061 70.2811H1.00244V71.5175L2.21548 71.7565L2.5061 70.2811ZM62.4988 82.099L62.2082 83.5743L64.0024 83.9277V82.099H62.4988ZM62.4988 55.596V54.0923H60.9951V55.596H62.4988ZM63.5012 55.596H65.0049V54.0923H63.5012V55.596ZM63.5012 82.099H61.9976V83.9277L63.7918 83.5743L63.5012 82.099ZM123.494 70.2811L123.785 71.7565L124.998 71.5175V70.2811H123.494ZM123.494 3.24985H124.998V1.3002L123.112 1.79553L123.494 3.24985ZM113.033 5.99775L113.415 7.45212L113.415 7.45207L113.033 5.99775ZM112.42 5.64044L110.965 6.02088L110.966 6.02303L112.42 5.64044ZM112.778 5.02762L112.397 3.57324L112.396 3.57327L112.778 5.02762ZM123.868 2.11623L124.25 3.57061L124.251 3.57036L123.868 2.11623ZM124.496 1.95079H126V8.43671e-05L124.114 0.496671L124.496 1.95079ZM124.496 71.1054L124.207 69.6299L123.803 69.7092L124.092 71.1847L124.381 72.6603L124.786 72.581L124.496 71.1054ZM124.092 71.1847L123.801 69.7094L62.8063 81.726L63.0969 83.2013L63.3876 84.6766L124.383 72.66L124.092 71.1847ZM63.0969 83.2013L62.8135 81.7246L62.7166 81.7432L63 83.2199L63.2834 84.6966L63.3803 84.678L63.0969 83.2013ZM63 83.2199L63.2834 81.7432L63.1865 81.7246L62.9031 83.2013L62.6197 84.678L62.7166 84.6966L63 83.2199ZM62.9031 83.2013L63.1937 81.726L2.19861 69.7094L1.90796 71.1847L1.61732 72.66L62.6124 84.6766L62.9031 83.2013ZM1.90796 71.1847L2.19736 69.7092L1.79305 69.6299L1.50366 71.1054L1.21427 72.581L1.61857 72.6603L1.90796 71.1847ZM1.50366 71.1054H3.00732V1.95079H1.50366H0V71.1054H1.50366ZM1.50366 1.95079L1.12088 3.40491L1.74936 3.57036L2.13214 2.11623L2.51492 0.662113L1.88644 0.496671L1.50366 1.95079ZM2.13214 2.11623L1.75035 3.57062L12.8408 6.482L13.2226 5.02762L13.6044 3.57323L2.51393 0.661853L2.13214 2.11623ZM13.2226 5.02762L12.8399 6.48176C12.3017 6.3401 11.9861 5.79149 12.1252 5.25979L13.5799 5.64044L15.0346 6.02108C15.3137 4.95436 14.6784 3.85589 13.6053 3.57347L13.2226 5.02762ZM13.5799 5.64044L12.1258 5.25767C12.2668 4.72199 12.8144 4.40331 13.3486 4.54303L12.9681 5.99775L12.5876 7.45247C13.6567 7.73211 14.7523 7.09368 15.034 6.02321L13.5799 5.64044ZM12.9681 5.99775L13.3501 4.54342L2.88809 1.79552L2.5061 3.24985L2.12411 4.70418L12.5861 7.45208L12.9681 5.99775ZM2.5061 3.24985H1.00244V70.2811H2.5061H4.00976V3.24985H2.5061ZM2.5061 70.2811L2.21548 71.7565L62.2082 83.5743L62.4988 82.099L62.7894 80.6237L2.79672 68.8058L2.5061 70.2811ZM62.4988 82.099H64.0024V55.596H62.4988H60.9951V82.099H62.4988ZM62.4988 55.596V57.0997H63.5012V55.596V54.0923H62.4988V55.596ZM63.5012 55.596H61.9976V82.099H63.5012H65.0049V55.596H63.5012ZM63.5012 82.099L63.7918 83.5743L123.785 71.7565L123.494 70.2811L123.203 68.8058L63.2106 80.6237L63.5012 82.099ZM123.494 70.2811H124.998V3.24985H123.494H121.99V70.2811H123.494ZM123.494 3.24985L123.112 1.79553L112.651 4.54343L113.033 5.99775L113.415 7.45207L123.876 4.70417L123.494 3.24985ZM113.033 5.99775L112.651 4.54338C113.184 4.40334 113.733 4.72073 113.874 5.25784L112.42 5.64044L110.966 6.02303C111.248 7.09531 112.346 7.73271 113.415 7.45212L113.033 5.99775ZM112.42 5.64044L113.875 5.26C114.015 5.79502 113.696 6.34139 113.16 6.48197L112.778 5.02762L112.396 3.57327C111.326 3.85437 110.685 4.95069 110.965 6.02087L112.42 5.64044ZM112.778 5.02762L113.16 6.48199L124.25 3.57061L123.868 2.11623L123.486 0.661861L112.397 3.57324L112.778 5.02762ZM123.868 2.11623L124.251 3.57036L124.879 3.40491L124.496 1.95079L124.114 0.496671L123.485 0.662113L123.868 2.11623ZM124.496 1.95079H122.993V71.1054H124.496H126V1.95079H124.496Z" fill="url(#paint1_linear_771_2525)"/>
<defs>
<linearGradient id="paint0_linear_771_2525" x1="63" y1="1.95079" x2="63" y2="83.2199" gradientUnits="userSpaceOnUse">
<stop stop-color="#A885D8"/>
<stop offset="0.9999" stop-color="#333333"/>
</linearGradient>
<linearGradient id="paint1_linear_771_2525" x1="63" y1="1.95079" x2="63" y2="83.2199" gradientUnits="userSpaceOnUse">
<stop stop-color="#A885D8"/>
<stop offset="0.480769" stop-color="#333333"/>
</linearGradient>
</defs>
</svg>
