<svg width="104" height="94" viewBox="0 0 104 94" fill="none" xmlns="http://www.w3.org/2000/svg">
<path d="M102.489 71.7436L102.174 71.8705L52.1884 91.9944L52.0005 92.0701L51.8126 91.9944L1.82667 71.8705L1.51091 71.7436V2.23686L2.20243 2.51523L21.1016 10.1239V11.2089L2.51818 3.72809V71.0629L51.9995 90.9841L101.482 71.0629V3.72809L82.1951 11.4922V10.4062L101.798 2.51523L102.489 2.23686V71.7436Z" fill="url(#paint0_linear_771_2528)"/>
<path d="M102.489 71.7436L103.054 73.145L104 72.7636V71.7436H102.489ZM102.174 71.8705L102.739 73.2721L102.739 73.2719L102.174 71.8705ZM52.1884 91.9944L51.6241 90.5928L51.6234 90.593L52.1884 91.9944ZM52.0005 92.0701L51.4356 93.4714L52.0005 93.6992L52.5654 93.4714L52.0005 92.0701ZM51.8126 91.9944L52.3775 90.593L52.3769 90.5928L51.8126 91.9944ZM1.82667 71.8705L2.39093 70.4689L2.39006 70.4686L1.82667 71.8705ZM1.51091 71.7436H0V72.7648L0.947514 73.1456L1.51091 71.7436ZM1.51091 2.23686L2.07514 0.835251L0 -0.000118155V2.23686H1.51091ZM2.20243 2.51523L2.7667 1.11364L2.76666 1.11363L2.20243 2.51523ZM21.1016 10.1239H22.6125V9.10341L21.6659 8.7223L21.1016 10.1239ZM21.1016 11.2089L20.5374 12.6105L22.6125 13.4458V11.2089H21.1016ZM2.51818 3.72809L3.0824 2.32648L1.00727 1.49114V3.72809H2.51818ZM2.51818 71.0629H1.00727V72.0834L1.95391 72.4645L2.51818 71.0629ZM51.9995 90.9841L51.4352 92.3857L51.9995 92.6129L52.5638 92.3857L51.9995 90.9841ZM101.482 71.0629L102.046 72.4645L102.993 72.0834V71.0629H101.482ZM101.482 3.72809H102.993V1.49112L100.918 2.32649L101.482 3.72809ZM82.1951 11.4922H80.6842V13.7291L82.7593 12.8938L82.1951 11.4922ZM82.1951 10.4062L81.6309 9.00459L80.6842 9.38568V10.4062H82.1951ZM101.798 2.51523L102.362 3.91684L102.362 3.91684L101.798 2.51523ZM102.489 2.23686H104V-0.000118155L101.925 0.835251L102.489 2.23686ZM102.489 71.7436L101.924 70.3423L101.609 70.4692L102.174 71.8705L102.739 73.2719L103.054 73.145L102.489 71.7436ZM102.174 71.8705L101.61 70.4689L51.6241 90.5928L52.1884 91.9944L52.7526 93.396L102.739 73.2721L102.174 71.8705ZM52.1884 91.9944L51.6234 90.593L51.4356 90.6688L52.0005 92.0701L52.5654 93.4714L52.7533 93.3957L52.1884 91.9944ZM52.0005 92.0701L52.5654 90.6688L52.3775 90.593L51.8126 91.9944L51.2477 93.3957L51.4356 93.4714L52.0005 92.0701ZM51.8126 91.9944L52.3769 90.5928L2.39093 70.4689L1.82667 71.8705L1.2624 73.2721L51.2483 93.396L51.8126 91.9944ZM1.82667 71.8705L2.39006 70.4686L2.07431 70.3417L1.51091 71.7436L0.947514 73.1456L1.26327 73.2725L1.82667 71.8705ZM1.51091 71.7436H3.02182V2.23686H1.51091H0V71.7436H1.51091ZM1.51091 2.23686L0.94668 3.63846L1.6382 3.91684L2.20243 2.51523L2.76666 1.11363L2.07514 0.835251L1.51091 2.23686ZM2.20243 2.51523L1.63816 3.91682L20.5373 11.5255L21.1016 10.1239L21.6659 8.7223L2.7667 1.11364L2.20243 2.51523ZM21.1016 10.1239H19.5907V11.2089H21.1016H22.6125V10.1239H21.1016ZM21.1016 11.2089L21.6658 9.80726L3.0824 2.32648L2.51818 3.72809L1.95396 5.1297L20.5374 12.6105L21.1016 11.2089ZM2.51818 3.72809H1.00727V71.0629H2.51818H4.02909V3.72809H2.51818ZM2.51818 71.0629L1.95391 72.4645L51.4352 92.3857L51.9995 90.9841L52.5638 89.5826L3.08246 69.6614L2.51818 71.0629ZM51.9995 90.9841L52.5638 92.3857L102.046 72.4645L101.482 71.0629L100.918 69.6614L51.4352 89.5826L51.9995 90.9841ZM101.482 71.0629H102.993V3.72809H101.482H99.9709V71.0629H101.482ZM101.482 3.72809L100.918 2.32649L81.6309 10.0906L82.1951 11.4922L82.7593 12.8938L102.046 5.1297L101.482 3.72809ZM82.1951 11.4922H83.706V10.4062H82.1951H80.6842V11.4922H82.1951ZM82.1951 10.4062L82.7593 11.8078L102.362 3.91684L101.798 2.51523L101.233 1.11362L81.6309 9.00459L82.1951 10.4062ZM101.798 2.51523L102.362 3.91684L103.053 3.63846L102.489 2.23686L101.925 0.835251L101.233 1.11363L101.798 2.51523ZM102.489 2.23686H100.978V71.7436H102.489H104V2.23686H102.489Z" fill="url(#paint1_linear_771_2528)"/>
<defs>
<linearGradient id="paint0_linear_771_2528" x1="52" y1="2.23686" x2="52" y2="92.0701" gradientUnits="userSpaceOnUse">
<stop stop-color="#A885D8"/>
<stop offset="0.9999" stop-color="#333333"/>
</linearGradient>
<linearGradient id="paint1_linear_771_2528" x1="52" y1="2.23686" x2="52" y2="92.0701" gradientUnits="userSpaceOnUse">
<stop stop-color="#A885D8"/>
<stop offset="0.480769" stop-color="#333333"/>
</linearGradient>
</defs>
</svg>
