<svg width="40" height="40" viewBox="0 0 40 40" fill="none" xmlns="http://www.w3.org/2000/svg">
<g id="material-symbols:exercise">
<path id="Vector" d="M34.9583 15.0418L24.875 4.95847L25.5833 4.25013C26.2222 3.61124 27.0139 3.29902 27.9583 3.31347C28.9028 3.32791 29.6944 3.65402 30.3333 4.2918L35.7083 9.6668C36.3472 10.3057 36.6667 11.0907 36.6667 12.0218C36.6667 12.9529 36.3472 13.7374 35.7083 14.3751L34.9583 15.0418ZM14.4167 35.6668C13.7778 36.3057 12.9933 36.6251 12.0633 36.6251C11.1333 36.6251 10.3483 36.3057 9.70833 35.6668L4.33333 30.2918C3.69444 29.6529 3.375 28.8685 3.375 27.9385C3.375 27.0085 3.69444 26.2235 4.33333 25.5835L5 24.9168L15.0833 35.0001L14.4167 35.6668ZM20.4583 34.5001C20.125 34.8335 19.7361 35.0001 19.2917 35.0001C18.8472 35.0001 18.4583 34.8335 18.125 34.5001L5.5 21.8751C5.16667 21.5418 5 21.1529 5 20.7085C5 20.264 5.16667 19.8751 5.5 19.5418L7.875 17.1251C8.20833 16.7918 8.60444 16.6251 9.06333 16.6251C9.52222 16.6251 9.91778 16.7918 10.25 17.1251L12.875 19.7501L19.7917 12.8335L17.1667 10.2085C16.8333 9.87513 16.6667 9.48625 16.6667 9.0418C16.6667 8.59736 16.8333 8.20847 17.1667 7.87513L19.5417 5.45847C19.875 5.12513 20.2711 4.95847 20.73 4.95847C21.1889 4.95847 21.5844 5.12513 21.9167 5.45847L34.5417 18.0835C34.875 18.4168 35.0417 18.8129 35.0417 19.2718C35.0417 19.7307 34.875 20.1262 34.5417 20.4585L32.125 22.8335C31.7917 23.1668 31.4028 23.3335 30.9583 23.3335C30.5139 23.3335 30.125 23.1668 29.7917 22.8335L27.1667 20.2085L20.25 27.1251L22.875 29.7501C23.2083 30.0835 23.375 30.479 23.375 30.9368C23.375 31.3946 23.2083 31.7907 22.875 32.1251L20.4583 34.5001Z" fill="#393E46"/>
</g>
</svg>
