<svg width="40" height="40" viewBox="0 0 40 40" fill="none" xmlns="http://www.w3.org/2000/svg">
<g id="material-symbols:exercise">
<path id="Vector" d="M34.9583 15.0416L24.875 4.95822L25.5833 4.24989C26.2222 3.611 27.0139 3.29878 27.9583 3.31322C28.9028 3.32767 29.6944 3.65378 30.3333 4.29156L35.7083 9.66656C36.3472 10.3054 36.6667 11.0904 36.6667 12.0216C36.6667 12.9527 36.3472 13.7371 35.7083 14.3749L34.9583 15.0416ZM14.4167 35.6666C13.7778 36.3054 12.9933 36.6249 12.0633 36.6249C11.1333 36.6249 10.3483 36.3054 9.70833 35.6666L4.33333 30.2916C3.69444 29.6527 3.375 28.8682 3.375 27.9382C3.375 27.0082 3.69444 26.2232 4.33333 25.5832L5 24.9166L15.0833 34.9999L14.4167 35.6666ZM20.4583 34.4999C20.125 34.8332 19.7361 34.9999 19.2917 34.9999C18.8472 34.9999 18.4583 34.8332 18.125 34.4999L5.5 21.8749C5.16667 21.5416 5 21.1527 5 20.7082C5 20.2638 5.16667 19.8749 5.5 19.5416L7.875 17.1249C8.20833 16.7916 8.60444 16.6249 9.06333 16.6249C9.52222 16.6249 9.91778 16.7916 10.25 17.1249L12.875 19.7499L19.7917 12.8332L17.1667 10.2082C16.8333 9.87489 16.6667 9.486 16.6667 9.04156C16.6667 8.59711 16.8333 8.20822 17.1667 7.87489L19.5417 5.45822C19.875 5.12489 20.2711 4.95822 20.73 4.95822C21.1889 4.95822 21.5844 5.12489 21.9167 5.45822L34.5417 18.0832C34.875 18.4166 35.0417 18.8127 35.0417 19.2716C35.0417 19.7304 34.875 20.126 34.5417 20.4582L32.125 22.8332C31.7917 23.1666 31.4028 23.3332 30.9583 23.3332C30.5139 23.3332 30.125 23.1666 29.7917 22.8332L27.1667 20.2082L20.25 27.1249L22.875 29.7499C23.2083 30.0832 23.375 30.4788 23.375 30.9366C23.375 31.3943 23.2083 31.7904 22.875 32.1249L20.4583 34.4999Z" fill="#393E46"/>
</g>
</svg>
