<svg width="40" height="40" viewBox="0 0 40 40" fill="none" xmlns="http://www.w3.org/2000/svg">
<g id="game-icons:champions">
<path id="Vector" d="M20 2.57812C18.0469 2.57812 16.2734 2.73672 15.0312 2.98047C14.5469 3.07656 14.1719 3.1875 13.8828 3.29375C14.1719 3.4 14.5469 3.51094 15.0312 3.60703C16.2734 3.85078 18.0469 4.00937 20 4.00937C21.9531 4.00937 23.7266 3.85078 24.9688 3.60703C25.4531 3.51094 25.8281 3.4 26.1172 3.29375C25.8281 3.1875 25.4531 3.07656 24.9688 2.98047C23.7266 2.73672 21.9531 2.57812 20 2.57812ZM12.125 2.99297C10.6328 3.68828 9.82812 5.02578 10.0312 6.35859C10.1875 7.32109 10.8828 8.19531 11.9844 8.64844C12.6172 8.91406 13.3828 9.05469 14.2812 9.04688C15.3203 10.9766 16.7266 12.5703 18.2344 13.3125V16.7422C16.9062 17.5469 16.0234 19.2188 15.1562 20.9375C18.1875 21.7109 21.8203 21.6719 24.8359 20.9297C23.9766 19.2109 23.0859 17.5469 21.7656 16.7422V13.3125C23.2734 12.5703 24.6797 10.9766 25.7188 9.04688C26.6172 9.05469 27.3828 8.91406 28.0156 8.64844C29.1172 8.19531 29.8125 7.32109 29.9688 6.35859C30.1719 5.02578 29.3672 3.68828 27.875 2.99297C27.9062 3.08672 27.9219 3.18672 27.9219 3.29375C27.9219 3.63359 27.7422 3.91172 27.5547 4.08672C27.375 4.26172 27.1719 4.37812 26.9453 4.48359C26.4922 4.69453 25.9219 4.85234 25.2344 4.98672C23.8672 5.25703 22.0312 5.41563 20 5.41563C17.9688 5.41563 16.1328 5.25703 14.7656 4.98672C14.0781 4.85234 13.5078 4.69453 13.0547 4.48359C12.8281 4.37812 12.625 4.26172 12.4453 4.08672C12.2578 3.91172 12.0781 3.63359 12.0781 3.29375C12.0781 3.18672 12.0938 3.08672 12.125 2.99297ZM12.6406 4.26719C12.8203 5.3875 13.1484 6.52578 13.6016 7.60625C13.1641 7.56328 12.8125 7.47266 12.5234 7.35313C11.7891 7.04844 11.4922 6.60078 11.4219 6.14141C11.3281 5.52188 11.6797 4.72344 12.6406 4.26719ZM27.3594 4.26719C28.3203 4.72344 28.6719 5.52188 28.5781 6.14141C28.5078 6.60078 28.2109 7.04844 27.4766 7.35313C27.1875 7.47266 26.8359 7.56328 26.3984 7.60625C26.8516 6.52578 27.1797 5.3875 27.3594 4.26719ZM32.8828 21.4219C32.0859 21.4375 31.3125 21.8281 30.6406 22.5312C29.8906 23.3359 29.3125 24.5469 29.1641 25.9453C29.0156 27.3438 29.3125 28.6484 29.875 29.5938C30.4453 30.5469 31.25 31.125 32.1641 31.2188C33.0859 31.3203 33.9922 30.9297 34.75 30.125C35.5078 29.3203 36.0781 28.1094 36.2344 26.7109C36.3828 25.3125 36.0859 24.0078 35.5234 23.0625C34.9453 22.1094 34.1484 21.5312 33.2266 21.4375C33.1094 21.4219 33 21.4219 32.8828 21.4219ZM7.11719 21.4219C7 21.4219 6.88281 21.4219 6.77344 21.4375C5.85156 21.5391 5.05469 22.125 4.48438 23.0625C3.91406 24.0156 3.61719 25.3203 3.77344 26.7188C3.92187 28.1172 4.49219 29.3281 5.25 30.1328C6.00781 30.9297 6.91406 31.3281 7.83594 31.2266C8.75781 31.125 9.55469 30.5469 10.125 29.6016C10.6953 28.6484 10.9922 27.3438 10.8359 25.9453C10.6875 24.5469 10.1172 23.3359 9.35156 22.5312C8.69531 21.8359 7.91406 21.4453 7.11719 21.4219ZM24.1406 22.5234C23.2969 22.6875 22.4297 22.8047 21.5469 22.8672C22.6016 26.2891 24.4688 29.3906 26.5312 32.4062C26.9688 31.7656 27.4531 31.2578 27.9844 30.8516C28.2188 30.6719 28.4609 30.5156 28.7031 30.3828L28.7109 30.375C28.6953 30.3516 28.6875 30.3359 28.6719 30.3125C28.3672 29.8047 28.1328 29.2344 27.9688 28.6172C26.5703 26.8906 25.1641 25.0547 24.1406 22.5234ZM15.8516 22.5391C14.8281 25.0547 13.4297 26.8906 12.0391 28.6094C11.875 29.2266 11.6328 29.8047 11.3281 30.3203C11.3203 30.3359 11.3047 30.3594 11.2891 30.375L11.2969 30.3828C11.5391 30.5156 11.7812 30.6719 12.0156 30.8516C12.5469 31.2578 13.0312 31.7656 13.4688 32.4062C15.5312 29.3984 17.3906 26.2969 18.4531 22.875C17.5703 22.8125 16.6953 22.7031 15.8516 22.5391ZM35.4375 31.4141C34.4766 32.2656 33.2812 32.7578 32.0156 32.6172C31.1016 32.5234 30.2812 32.1094 29.6172 31.4922C29.3438 31.625 29.0859 31.7812 28.8438 31.9688C27.6563 32.875 26.6172 35.2344 25.8672 38.6719H38.0469V34C37.875 33.7813 37.3438 33.1016 36.5391 32.3281C36.1953 31.9922 35.8125 31.6797 35.4375 31.4141ZM4.5625 31.4219C4.1875 31.6797 3.80469 31.9922 3.46094 32.3281C2.65625 33.1016 2.125 33.7813 1.95312 34V38.6719H14.1328C13.3828 35.2344 12.3438 32.875 11.1562 31.9688C10.9141 31.7812 10.6562 31.625 10.3828 31.4922C9.71875 32.1094 8.90625 32.5234 7.98438 32.625C6.72656 32.7656 5.51562 32.2734 4.5625 31.4219Z" fill="#393E46"/>
</g>
</svg>
