<svg width="40" height="40" viewBox="0 0 40 40" fill="none" xmlns="http://www.w3.org/2000/svg">
<g id="game-icons:achievement">
<path id="Vector" d="M23.9052 23.3448L25.6789 23.531V37.9688L20.7795 32.7371V24.414L22.2025 25.1089L23.9052 23.3448ZM16.0966 23.3448L14.3219 23.531V37.9688L19.2212 32.7371V24.414L17.7983 25.1089L16.0966 23.3448ZM29.5325 14.2995L30.1065 16.2975L28.3834 17.4592L28.2391 19.5351L26.2227 20.037L25.3788 21.9366L23.3116 21.7182L21.8682 23.2094L20.0009 22.2971L18.1335 23.2094L16.6902 21.7133L14.623 21.9316L13.779 20.0322L11.7626 19.5351L11.6183 17.4621L9.89031 16.2965L10.4644 14.2986L9.24609 12.6155L10.4683 10.9342L9.89031 8.94023L11.6144 7.77852L11.7587 5.70547L13.779 5.20844L14.623 3.30898L16.6902 3.52727L18.1335 2.03125L20.0009 2.94352L21.8682 2.03125L23.3116 3.52727L25.3788 3.30898L26.2227 5.20844L28.2391 5.71039L28.3834 7.78336L30.1065 8.94508L29.5325 10.943L30.7556 12.6155L29.5325 14.2995ZM25.6877 12.6155C25.6877 11.4992 25.3566 10.408 24.7365 9.47988C24.1163 8.55175 23.2349 7.82835 22.2036 7.40118C21.1723 6.97401 20.0375 6.86224 18.9427 7.08001C17.8479 7.29778 16.8422 7.83531 16.0529 8.62462C15.2636 9.41394 14.7261 10.4196 14.5083 11.5144C14.2905 12.6092 14.4023 13.744 14.8295 14.7753C15.2566 15.8066 15.98 16.688 16.9082 17.3082C17.8363 17.9284 18.9275 18.2594 20.0438 18.2594C21.5399 18.257 22.9741 17.6617 24.032 16.6037C25.0899 15.5458 25.6853 14.1116 25.6877 12.6155ZM20.0438 8.53086C19.2359 8.53086 18.4462 8.77041 17.7745 9.21922C17.1028 9.66803 16.5793 10.3059 16.2701 11.0523C15.961 11.7986 15.8801 12.6199 16.0377 13.4122C16.1953 14.2045 16.5843 14.9323 17.1555 15.5036C17.7267 16.0748 18.4545 16.4638 19.2468 16.6214C20.0392 16.779 20.8604 16.6982 21.6068 16.389C22.3531 16.0799 22.9911 15.5564 23.4399 14.8847C23.8887 14.213 24.1283 13.4233 24.1283 12.6155C24.1252 11.5334 23.6938 10.4966 22.9284 9.73171C22.1629 8.96684 21.1258 8.53616 20.0438 8.53383V8.53086Z" fill="white"/>
</g>
</svg>
