<svg width="40" height="40" viewBox="0 0 40 40" fill="none" xmlns="http://www.w3.org/2000/svg">
<g id="ph:users-three-fill">
<path id="Vector" d="M10.0183 23.0937C10.0225 23.1784 10.0095 23.2631 9.97998 23.3425C9.95048 23.422 9.90511 23.4946 9.84665 23.556C9.78818 23.6174 9.71784 23.6663 9.6399 23.6996C9.56196 23.733 9.47805 23.7501 9.39328 23.75H2.49953C2.2174 23.7504 1.94342 23.6554 1.72214 23.4804C1.50087 23.3053 1.34532 23.0606 1.28078 22.7859C1.24059 22.5979 1.24245 22.4034 1.2862 22.2162C1.32996 22.029 1.41455 21.8538 1.5339 21.7031C2.63678 20.2406 4.10002 19.0891 5.78078 18.3609C5.04285 17.6881 4.47688 16.8483 4.13027 15.9118C3.78366 14.9752 3.66651 13.9693 3.78861 12.9782C3.91072 11.9871 4.26853 11.0397 4.83209 10.2153C5.39565 9.39089 6.14853 8.71355 7.0277 8.23997C7.90686 7.76639 8.88671 7.51036 9.88517 7.49334C10.8836 7.47632 11.8716 7.69879 12.7664 8.14212C13.6612 8.58546 14.4368 9.23674 15.0281 10.0414C15.6194 10.8461 16.0093 11.7808 16.1652 12.7672C16.1853 12.8998 16.1615 13.0354 16.0975 13.1533C16.0335 13.2712 15.9327 13.365 15.8105 13.4203C14.0767 14.2218 12.6084 15.5026 11.5788 17.1114C10.5491 18.7202 10.0012 20.5899 9.99953 22.5C9.99953 22.7 9.99953 22.8969 10.0183 23.0937ZM38.4558 21.7016C37.3555 20.2407 35.8956 19.0898 34.2183 18.3609C34.9562 17.6881 35.5222 16.8483 35.8688 15.9118C36.2154 14.9752 36.3326 13.9693 36.2104 12.9782C36.0883 11.9871 35.7305 11.0397 35.167 10.2153C34.6034 9.39089 33.8505 8.71355 32.9714 8.23997C32.0922 7.76639 31.1123 7.51036 30.1139 7.49334C29.1154 7.47632 28.1274 7.69879 27.2326 8.14212C26.3378 8.58546 25.5623 9.23674 24.971 10.0414C24.3796 10.8461 23.9897 11.7808 23.8339 12.7672C23.8138 12.8998 23.8375 13.0354 23.9016 13.1533C23.9656 13.2712 24.0664 13.365 24.1886 13.4203C25.9224 14.2218 27.3907 15.5026 28.4203 17.1114C29.4499 18.7202 29.9979 20.5899 29.9995 22.5C29.9995 22.7 29.9995 22.8969 29.9808 23.0937C29.9765 23.1784 29.9896 23.2631 30.0191 23.3425C30.0486 23.422 30.0939 23.4946 30.1524 23.556C30.2109 23.6174 30.2812 23.6663 30.3592 23.6996C30.4371 23.733 30.521 23.7501 30.6058 23.75H37.4995C37.7817 23.7504 38.0556 23.6554 38.2769 23.4804C38.4982 23.3053 38.6537 23.0606 38.7183 22.7859C38.7587 22.5976 38.7568 22.4026 38.7128 22.2151C38.6688 22.0276 38.5836 21.8522 38.4636 21.7016H38.4558ZM24.5495 28.4484C25.7941 27.4953 26.7088 26.176 27.1649 24.6762C27.621 23.1763 27.5957 21.5713 27.0925 20.0865C26.5893 18.6018 25.6334 17.3121 24.3594 16.3987C23.0853 15.4853 21.557 14.994 19.9894 14.994C18.4217 14.994 16.8934 15.4853 15.6194 16.3987C14.3453 17.3121 13.3895 18.6018 12.8863 20.0865C12.3831 21.5713 12.3577 23.1763 12.8138 24.6762C13.27 26.176 14.1846 27.4953 15.4292 28.4484C13.2207 29.4054 11.3765 31.0442 10.1667 33.125C10.057 33.315 9.99924 33.5306 9.99925 33.7501C9.99926 33.9695 10.057 34.1851 10.1668 34.3751C10.2765 34.5651 10.4344 34.7229 10.6244 34.8326C10.8145 34.9423 11.0301 35 11.2495 35H28.7495C28.969 35 29.1846 34.9423 29.3746 34.8326C29.5647 34.7229 29.7225 34.5651 29.8323 34.3751C29.942 34.1851 29.9998 33.9695 29.9998 33.7501C29.9998 33.5306 29.9421 33.315 29.8323 33.125C28.62 31.0428 26.7724 29.4039 24.5605 28.4484H24.5495Z" fill="white"/>
</g>
</svg>
