<svg width="40" height="40" viewBox="0 0 40 40" fill="none" xmlns="http://www.w3.org/2000/svg">
<g id="mdi:gift">
<path id="Vector" d="M15.0993 3.21662C11.9493 3.19995 8.88268 6.23329 10.2827 9.99995H4.99935C4.11529 9.99995 3.26745 10.3511 2.64233 10.9763C2.01721 11.6014 1.66602 12.4492 1.66602 13.3333V16.6666C1.66602 17.1086 1.84161 17.5326 2.15417 17.8451C2.46673 18.1577 2.89065 18.3333 3.33268 18.3333H18.3327V13.3333H21.666V18.3333H36.666C37.108 18.3333 37.532 18.1577 37.8445 17.8451C38.1571 17.5326 38.3327 17.1086 38.3327 16.6666V13.3333C38.3327 12.4492 37.9815 11.6014 37.3564 10.9763C36.7312 10.3511 35.8834 9.99995 34.9993 9.99995H29.716C31.666 4.54995 24.3327 0.699955 20.9493 5.39995L19.9993 6.66662L19.0493 5.36662C17.9993 3.88329 16.5493 3.23329 15.0993 3.21662ZM14.9993 6.66662C16.4827 6.66662 17.2327 8.46662 16.1827 9.51662C15.1327 10.5666 13.3327 9.81662 13.3327 8.33329C13.3327 7.89126 13.5083 7.46734 13.8208 7.15478C14.1334 6.84222 14.5573 6.66662 14.9993 6.66662ZM24.9993 6.66662C26.4827 6.66662 27.2327 8.46662 26.1827 9.51662C25.1327 10.5666 23.3327 9.81662 23.3327 8.33329C23.3327 7.89126 23.5083 7.46734 23.8208 7.15478C24.1334 6.84222 24.5573 6.66662 24.9993 6.66662ZM3.33268 20V33.3333C3.33268 34.2173 3.68387 35.0652 4.30899 35.6903C4.93411 36.3154 5.78196 36.6666 6.66602 36.6666H33.3327C34.2167 36.6666 35.0646 36.3154 35.6897 35.6903C36.3148 35.0652 36.666 34.2173 36.666 33.3333V20H21.666V33.3333H18.3327V20H3.33268Z" fill="white"/>
</g>
</svg>
