<svg width="24" height="24" viewBox="0 0 24 24" fill="none" xmlns="http://www.w3.org/2000/svg">
<g id="streamline:delete-1-solid" clip-path="url(#clip0_816_4275)">
<path id="Vector" fill-rule="evenodd" clip-rule="evenodd" d="M2.92587 0.502705C2.60255 0.190434 2.16952 0.0176433 1.72004 0.0215492C1.27056 0.025455 0.840592 0.205745 0.522749 0.523587C0.204907 0.84143 0.0246172 1.27139 0.0207113 1.72087C0.0168055 2.17035 0.189596 2.60339 0.501867 2.9267L9.57558 12.0004L0.501867 21.0741C0.338135 21.2323 0.207537 21.4214 0.117693 21.6306C0.027849 21.8397 -0.0194417 22.0647 -0.0214196 22.2923C-0.0233976 22.5199 0.0199767 22.7457 0.106173 22.9563C0.192368 23.167 0.319659 23.3584 0.480618 23.5194C0.641577 23.6803 0.832981 23.8076 1.04366 23.8938C1.25434 23.98 1.48008 24.0234 1.7077 24.0214C1.93532 24.0194 2.16027 23.9722 2.36942 23.8823C2.57857 23.7925 2.76773 23.6619 2.92587 23.4981L11.9996 14.4244L21.0733 23.4981C21.3966 23.8104 21.8296 23.9832 22.2791 23.9793C22.7286 23.9754 23.1586 23.7951 23.4764 23.4773C23.7943 23.1594 23.9745 22.7294 23.9785 22.28C23.9824 21.8305 23.8096 21.3975 23.4973 21.0741L14.4236 12.0004L23.4973 2.9267C23.8096 2.60339 23.9824 2.17035 23.9785 1.72087C23.9745 1.27139 23.7943 0.84143 23.4764 0.523587C23.1586 0.205745 22.7286 0.025455 22.2791 0.0215492C21.8296 0.0176433 21.3966 0.190434 21.0733 0.502705L11.9996 9.57642L2.92587 0.502705Z" fill="white"/>
</g>
<defs>
<clipPath id="clip0_816_4275">
<rect width="24" height="24" fill="white"/>
</clipPath>
</defs>
</svg>
