<svg width="24" height="24" viewBox="0 0 24 24" fill="none" xmlns="http://www.w3.org/2000/svg">
<g id="ic:round-arrow-back-ios-new">
<path id="Vector" d="M2.88091 7.12033C2.7645 7.23645 2.67214 7.37438 2.60912 7.52625C2.54611 7.67811 2.51367 7.84091 2.51367 8.00533C2.51367 8.16975 2.54611 8.33255 2.60912 8.48441C2.67214 8.63628 2.7645 8.77421 2.88091 8.89033L11.2909 17.3003C11.3834 17.393 11.4933 17.4666 11.6143 17.5168C11.7353 17.5669 11.8649 17.5928 11.9959 17.5928C12.1269 17.5928 12.2566 17.5669 12.3775 17.5168C12.4985 17.4666 12.6084 17.393 12.7009 17.3003L21.1109 8.89033C21.6009 8.40033 21.6009 7.61033 21.1109 7.12033C20.6209 6.63033 19.8309 6.63033 19.3409 7.12033L12.0009 14.4603L4.65091 7.11033C4.16091 6.63033 3.37091 6.63033 2.88091 7.12033Z" fill="black"/>
</g>
</svg>
