<svg width="25" height="24" viewBox="0 0 25 24" fill="none" xmlns="http://www.w3.org/2000/svg">
<g id="clarity:date-solid" clip-path="url(#clip0_816_4309)">
<path id="Vector" d="M22.3958 4.00008H19.618V6.00008C19.618 6.19268 19.5785 6.3834 19.5017 6.56135C19.4249 6.73929 19.3124 6.90097 19.1705 7.03717C19.0287 7.17336 18.8603 7.28139 18.6749 7.3551C18.4895 7.42881 18.2909 7.46674 18.0902 7.46674C17.8896 7.46674 17.6909 7.42881 17.5056 7.3551C17.3202 7.28139 17.1518 7.17336 17.0099 7.03717C16.8681 6.90097 16.7555 6.73929 16.6788 6.56135C16.602 6.3834 16.5625 6.19268 16.5625 6.00008V4.00008H8.47218V6.00008C8.47218 6.38906 8.31122 6.76211 8.02471 7.03717C7.73819 7.31222 7.3496 7.46674 6.94441 7.46674C6.53921 7.46674 6.15062 7.31222 5.8641 7.03717C5.57759 6.76211 5.41663 6.38906 5.41663 6.00008V4.00008H2.63885C2.47359 3.99827 2.30963 4.0283 2.15667 4.08838C2.0037 4.14847 1.86485 4.23739 1.7483 4.34989C1.63176 4.4624 1.53991 4.59619 1.47817 4.74336C1.41642 4.89054 1.38605 5.0481 1.38885 5.20674V20.1267C1.38609 20.2826 1.41534 20.4374 1.47492 20.5824C1.53451 20.7274 1.62326 20.8597 1.73612 20.9718C1.84897 21.0838 1.98371 21.1734 2.13265 21.2355C2.28158 21.2975 2.44179 21.3308 2.60413 21.3334H22.3958C22.5581 21.3308 22.7183 21.2975 22.8673 21.2355C23.0162 21.1734 23.151 21.0838 23.2638 20.9718C23.3767 20.8597 23.4654 20.7274 23.525 20.5824C23.5846 20.4374 23.6138 20.2826 23.6111 20.1267V5.20674C23.6138 5.0509 23.5846 4.89607 23.525 4.75108C23.4654 4.60609 23.3767 4.47379 23.2638 4.36174C23.151 4.24968 23.0162 4.16007 22.8673 4.09802C22.7183 4.03596 22.5581 4.00268 22.3958 4.00008ZM6.94441 17.3334H5.55552V16.0001H6.94441V17.3334ZM6.94441 14.0001H5.55552V12.6667H6.94441V14.0001ZM6.94441 10.6667H5.55552V9.33341H6.94441V10.6667ZM11.1111 17.3334H9.72218V16.0001H11.1111V17.3334ZM11.1111 14.0001H9.72218V12.6667H11.1111V14.0001ZM11.1111 10.6667H9.72218V9.33341H11.1111V10.6667ZM15.2777 17.3334H13.8889V16.0001H15.2777V17.3334ZM15.2777 14.0001H13.8889V12.6667H15.2777V14.0001ZM15.2777 10.6667H13.8889V9.33341H15.2777V10.6667ZM19.4444 17.3334H18.0555V16.0001H19.4444V17.3334ZM19.4444 14.0001H18.0555V12.6667H19.4444V14.0001ZM19.4444 10.6667H18.0555V9.33341H19.4444V10.6667Z" fill="black"/>
<path id="Vector_2" d="M6.94444 6.66634C7.12862 6.66634 7.30526 6.5961 7.43549 6.47108C7.56572 6.34605 7.63889 6.17649 7.63889 5.99967V1.99967C7.63889 1.82286 7.56572 1.65329 7.43549 1.52827C7.30526 1.40325 7.12862 1.33301 6.94444 1.33301C6.76027 1.33301 6.58363 1.40325 6.4534 1.52827C6.32316 1.65329 6.25 1.82286 6.25 1.99967V5.99967C6.25 6.17649 6.32316 6.34605 6.4534 6.47108C6.58363 6.5961 6.76027 6.66634 6.94444 6.66634Z" fill="black"/>
<path id="Vector_3" d="M18.0558 6.66634C18.24 6.66634 18.4166 6.5961 18.5468 6.47108C18.6771 6.34605 18.7502 6.17649 18.7502 5.99967V1.99967C18.7502 1.82286 18.6771 1.65329 18.5468 1.52827C18.4166 1.40325 18.24 1.33301 18.0558 1.33301C17.8716 1.33301 17.695 1.40325 17.5647 1.52827C17.4345 1.65329 17.3613 1.82286 17.3613 1.99967V5.99967C17.3613 6.17649 17.4345 6.34605 17.5647 6.47108C17.695 6.5961 17.8716 6.66634 18.0558 6.66634Z" fill="black"/>
</g>
<defs>
<clipPath id="clip0_816_4309">
<rect width="25" height="24" fill="white"/>
</clipPath>
</defs>
</svg>
