<svg width="24" height="24" viewBox="0 0 24 24" fill="none" xmlns="http://www.w3.org/2000/svg">
<g id="eos-icons:product-classes">
<path id="Vector" d="M7 2H3C2.73478 2 2.48043 2.10536 2.29289 2.29289C2.10536 2.48043 2 2.73478 2 3V21C2 21.2652 2.10536 21.5196 2.29289 21.7071C2.48043 21.8946 2.73478 22 3 22H7C7.26522 22 7.51957 21.8946 7.70711 21.7071C7.89464 21.5196 8 21.2652 8 21V3C8 2.73478 7.89464 2.48043 7.70711 2.29289C7.51957 2.10536 7.26522 2 7 2ZM5 21C4.60444 21 4.21776 20.8827 3.88886 20.6629C3.55996 20.4432 3.30362 20.1308 3.15224 19.7654C3.00087 19.3999 2.96126 18.9978 3.03843 18.6098C3.1156 18.2219 3.30608 17.8655 3.58579 17.5858C3.86549 17.3061 4.22186 17.1156 4.60982 17.0384C4.99778 16.9613 5.39991 17.0009 5.76537 17.1522C6.13082 17.3036 6.44318 17.56 6.66294 17.8889C6.8827 18.2178 7 18.6044 7 19C7 19.5304 6.78929 20.0391 6.41421 20.4142C6.03914 20.7893 5.53043 21 5 21ZM7 12H3V3H7V12Z" fill="#A885D8"/>
<path id="Vector_2" d="M5.00977 20.0098C5.56205 20.0098 6.00977 19.5621 6.00977 19.0098C6.00977 18.4575 5.56205 18.0098 5.00977 18.0098C4.45748 18.0098 4.00977 18.4575 4.00977 19.0098C4.00977 19.5621 4.45748 20.0098 5.00977 20.0098Z" fill="#A885D8"/>
<path id="Vector_3" d="M10.0098 2V11.01H15.0098V2H10.0098ZM16.9998 2V11.01H21.9998V2H16.9998ZM10.0098 13V22H15.0098V13H10.0098ZM16.9998 13V22H21.9998V13H16.9998Z" fill="#A885D8"/>
</g>
</svg>
