<svg width="50" height="50" viewBox="0 0 50 50" fill="none" xmlns="http://www.w3.org/2000/svg">
<g id="material-symbols:quiz">
<path id="Vector" d="M29.167 31.2501C29.7573 31.2501 30.2698 31.0334 30.7045 30.6001C31.1392 30.1667 31.3559 29.6542 31.3545 29.0626C31.3531 28.4709 31.1364 27.9591 30.7045 27.5272C30.2725 27.0952 29.76 26.8778 29.167 26.8751C28.5739 26.8723 28.0621 27.0897 27.6316 27.5272C27.201 27.9647 26.9837 28.4765 26.9795 29.0626C26.9753 29.6487 27.1927 30.1612 27.6316 30.6001C28.0705 31.039 28.5823 31.2556 29.167 31.2501ZM27.6045 24.5834H30.7295C30.7295 23.5765 30.8336 22.839 31.042 22.3709C31.2503 21.9029 31.7364 21.2862 32.5003 20.5209C33.542 19.4792 34.2364 18.6376 34.5836 17.9959C34.9309 17.3542 35.1045 16.5987 35.1045 15.7292C35.1045 14.1667 34.5573 12.8911 33.4628 11.9022C32.3684 10.9133 30.9364 10.4181 29.167 10.4167C27.7434 10.4167 26.5024 10.8161 25.4441 11.6147C24.3857 12.4133 23.6475 13.4723 23.2295 14.7917L26.042 15.9376C26.3545 15.0695 26.7802 14.4188 27.3191 13.9855C27.858 13.5522 28.4739 13.3348 29.167 13.3334C30.0003 13.3334 30.6774 13.5681 31.1982 14.0376C31.7191 14.507 31.9795 15.1404 31.9795 15.9376C31.9795 16.4237 31.8406 16.8841 31.5628 17.3188C31.285 17.7535 30.7989 18.3001 30.1045 18.9584C28.9586 19.9654 28.2559 20.7556 27.9961 21.3292C27.7364 21.9029 27.6059 22.9876 27.6045 24.5834ZM16.667 37.5001C15.5212 37.5001 14.5406 37.0924 13.7253 36.2772C12.91 35.4619 12.5017 34.4806 12.5003 33.3334V8.33341C12.5003 7.18758 12.9087 6.20703 13.7253 5.39175C14.542 4.57647 15.5225 4.16814 16.667 4.16675H41.667C42.8128 4.16675 43.7941 4.57508 44.6107 5.39175C45.4274 6.20841 45.835 7.18897 45.8336 8.33341V33.3334C45.8336 34.4792 45.426 35.4605 44.6107 36.2772C43.7954 37.0938 42.8142 37.5015 41.667 37.5001H16.667ZM8.33366 45.8334C7.18782 45.8334 6.20727 45.4258 5.39199 44.6105C4.57671 43.7952 4.16838 42.814 4.16699 41.6667V12.5001H8.33366V41.6667H37.5003V45.8334H8.33366Z" fill="white"/>
</g>
</svg>
