<svg width="60" height="60" viewBox="0 0 60 60" fill="none" xmlns="http://www.w3.org/2000/svg">
<g id="material-symbols:rewarded-ads">
<path id="Vector" d="M30 27.5C31.375 27.5 32.5525 27.0108 33.5325 26.0325C34.5125 25.0542 35.0017 23.8767 35 22.5C34.9983 21.1233 34.5092 19.9467 33.5325 18.97C32.5558 17.9933 31.3783 17.5033 30 17.5C28.6217 17.4967 27.445 17.9867 26.47 18.97C25.495 19.9533 25.005 21.13 25 22.5C24.995 23.87 25.485 25.0475 26.47 26.0325C27.455 27.0175 28.6317 27.5067 30 27.5ZM17.5 52.5V47.5H27.5V39.75C25.4583 39.2917 23.6358 38.4275 22.0325 37.1575C20.4292 35.8875 19.2517 34.2933 18.5 32.375C15.375 32 12.7608 30.6358 10.6575 28.2825C8.55417 25.9292 7.50167 23.1683 7.5 20V17.5C7.5 16.125 7.99 14.9483 8.97 13.97C9.95 12.9917 11.1267 12.5017 12.5 12.5H17.5V7.5H42.5V12.5H47.5C48.875 12.5 50.0525 12.99 51.0325 13.97C52.0125 14.95 52.5017 16.1267 52.5 17.5V20C52.5 23.1667 51.4475 25.9275 49.3425 28.2825C47.2375 30.6375 44.6233 32.0017 41.5 32.375C40.75 34.2917 39.5733 35.8858 37.97 37.1575C36.3667 38.4292 34.5433 39.2933 32.5 39.75V47.5H42.5V52.5H17.5ZM17.5 27V17.5H12.5V20C12.5 21.5833 12.9583 23.0108 13.875 24.2825C14.7917 25.5542 16 26.46 17.5 27ZM42.5 27C44 26.4583 45.2083 25.5517 46.125 24.28C47.0417 23.0083 47.5 21.5817 47.5 20V17.5H42.5V27Z" fill="white"/>
</g>
</svg>
