<svg width="61" height="60" viewBox="0 0 61 60" fill="none" xmlns="http://www.w3.org/2000/svg">
<g id="streamline-sharp:star-badge-solid">
<path id="Vector" fill-rule="evenodd" clip-rule="evenodd" d="M49.0862 20.975C49.0862 23.3757 48.6055 25.7529 47.6715 27.9709C46.7374 30.1889 45.3684 32.2042 43.6425 33.9018C41.9167 35.5993 39.8678 36.9459 37.6128 37.8646C35.3579 38.7834 32.941 39.2562 30.5003 39.2562C28.0596 39.2562 25.6427 38.7834 23.3878 37.8646C21.1328 36.9459 19.0839 35.5993 17.3581 33.9018C15.6322 32.2042 14.2632 30.1889 13.3291 27.9709C12.3951 25.7529 11.9144 23.3757 11.9144 20.975C11.9144 16.1265 13.8725 11.4766 17.3581 8.04818C20.8436 4.61978 25.571 2.69373 30.5003 2.69373C35.4296 2.69373 40.157 4.61978 43.6425 8.04818C47.1281 11.4766 49.0862 16.1265 49.0862 20.975ZM30.372 11.4825L33.6634 17.0325L39.3059 18.4175L35.5442 22.58L36.4847 29.055L30.372 26.28L24.2618 29.055L25.2022 22.58L21.4405 18.4175L27.083 17.03L30.372 11.4825ZM2.8457 49.18L12.0567 33.485C13.7805 35.9478 15.9966 38.0391 18.5697 39.6312C21.1427 41.2233 24.0187 42.2828 27.022 42.745L18.144 57.8675L14.8856 46.04L2.8457 49.175V49.18ZM42.8515 57.8675L33.976 42.7425C36.9791 42.2806 39.855 41.2215 42.4281 39.6298C45.0011 38.0381 47.2173 35.9473 48.9414 33.485L58.1524 49.1775L46.1099 46.04L42.8541 57.865L42.8515 57.8675Z" fill="#0000FF"/>
</g>
</svg>
