<svg width="24" height="24" viewBox="0 0 24 24" fill="none" xmlns="http://www.w3.org/2000/svg">
<g id="typcn:arrow-back">
<path id="Vector" d="M12 9.05936V6.50036C11.9997 6.30273 11.9409 6.10963 11.831 5.94537C11.7211 5.78112 11.565 5.65307 11.3825 5.57735C11.2 5.50164 10.9991 5.48166 10.8052 5.51992C10.6113 5.55818 10.4331 5.65297 10.293 5.79236L4 12.0004L10.293 18.2074C10.3857 18.3005 10.4958 18.3745 10.6171 18.425C10.7385 18.4754 10.8686 18.5014 11 18.5014C11.1314 18.5014 11.2615 18.4754 11.3829 18.425C11.5042 18.3745 11.6143 18.3005 11.707 18.2074C11.8945 18.0199 11.9999 17.7655 12 17.5004V15.0114C14.75 15.0794 17.755 15.5774 20 19.0004V18.0004C20 13.3674 16.5 9.55736 12 9.05936Z" fill="white"/>
</g>
</svg>
