<svg width="60" height="60" viewBox="0 0 60 60" fill="none" xmlns="http://www.w3.org/2000/svg">
<g id="fa7-brands:internet-explorer" clip-path="url(#clip0_832_8444)">
<path id="Vector" d="M56.6133 18.7149C57.8906 15.832 59.1211 11.6367 59.1211 8.41407C59.1211 -0.105457 49.793 -3.11718 34.5469 3.89064C21.9375 3.04689 9.79688 12.5274 6.76172 25.7461C10.3828 21.6563 15.9375 16.1016 21.0586 13.8867C14.6953 19.5469 9.26953 26.707 5.15625 34.1836C2.73047 38.625 0 45.8086 0 51.1758C0 62.7305 10.8867 61.3125 21.1289 56.0977C24.8086 57.9024 28.9336 57.9258 33.0469 57.9258C44.4258 57.9258 54.6328 51.5625 58.4531 40.8164H44.2969C38.1445 51.1992 21.2344 47.0274 21.2344 35.2617H59.7656C60.5156 30.1524 59.5664 24.0469 56.6133 18.7149ZM7.57031 40.6524C9.64453 46.6406 13.8633 51.8789 19.3125 55.1016C8.91797 60.832 -0.984375 58.5117 7.57031 40.6524ZM21.1523 27.8906C21.3867 21.4219 27.0469 16.7695 33.3398 16.7695C39.5977 16.7695 45.293 21.4219 45.5273 27.8906H21.1523ZM42.7852 5.90626C45.293 4.69923 48.4805 3.32814 51.293 3.32814C54.9727 3.32814 57.6562 5.87111 57.6562 9.62111C57.6562 11.9649 56.7891 15.3633 55.9453 17.5781C52.8633 12.6211 48.2109 8.01564 42.7852 5.90626Z" fill="#0000FF"/>
</g>
<defs>
<clipPath id="clip0_832_8444">
<rect width="60" height="60" fill="white"/>
</clipPath>
</defs>
</svg>
