<svg width="16" height="16" viewBox="0 0 16 16" fill="none" xmlns="http://www.w3.org/2000/svg">
<g id="Group">
<path id="Vector" d="M7.99997 10L7.29297 10.707L7.99997 11.414L8.70697 10.707L7.99997 10ZM8.99997 1C8.99997 0.734784 8.89461 0.48043 8.70708 0.292893C8.51954 0.105357 8.26518 0 7.99997 0C7.73475 0 7.4804 0.105357 7.29286 0.292893C7.10533 0.48043 6.99997 0.734784 6.99997 1H8.99997ZM2.29297 5.707L7.29297 10.707L8.70697 9.293L3.70697 4.293L2.29297 5.707ZM8.70697 10.707L13.707 5.707L12.293 4.293L7.29297 9.293L8.70697 10.707ZM8.99997 10V1H6.99997V10H8.99997Z" fill="black" fill-opacity="0.4"/>
<path id="Vector_2" d="M1 12V13C1 13.5304 1.21071 14.0391 1.58579 14.4142C1.96086 14.7893 2.46957 15 3 15H13C13.5304 15 14.0391 14.7893 14.4142 14.4142C14.7893 14.0391 15 13.5304 15 13V12" stroke="black" stroke-opacity="0.4" stroke-width="2"/>
</g>
</svg>
