<svg width="20" height="20" viewBox="0 0 20 20" fill="none" xmlns="http://www.w3.org/2000/svg">
<g id="bxs:edit">
<rect width="19.1068" height="19.1068" transform="scale(1.04674)" fill="#ECF0F1"/>
<path id="Vector" d="M15.8234 1.67642L18.3234 4.1764L16.4176 6.08305L13.9176 3.58307L15.8234 1.67642ZM6.66684 13.333H9.16682L15.2393 7.26055L12.7393 4.76056L6.66684 10.833V13.333Z" fill="#808080"/>
<path id="Vector_2" d="M15.8336 15.833H6.79862C6.77695 15.833 6.75445 15.8414 6.73279 15.8414C6.70529 15.8414 6.67779 15.8339 6.64946 15.833H4.16697V4.16646H9.87276L11.5394 2.49981H4.16697C3.24781 2.49981 2.50032 3.24647 2.50032 4.16646V15.833C2.50032 16.753 3.24781 17.4997 4.16697 17.4997H15.8336C16.2756 17.4997 16.6995 17.3241 17.0121 17.0115C17.3246 16.699 17.5002 16.2751 17.5002 15.833V8.60976L15.8336 10.2764V15.833Z" fill="#808080"/>
</g>
</svg>
