<svg width="24" height="24" viewBox="0 0 24 24" fill="none" xmlns="http://www.w3.org/2000/svg">
<g id="mdi:eye">
<path id="Vector" d="M11.9998 8.99976C11.2042 8.99976 10.4411 9.31583 9.87853 9.87843C9.31593 10.441 8.99986 11.2041 8.99986 11.9997C8.99986 12.7954 9.31593 13.5584 9.87853 14.121C10.4411 14.6836 11.2042 14.9997 11.9998 14.9997C12.7955 14.9997 13.5585 14.6836 14.1211 14.121C14.6837 13.5584 14.9998 12.7954 14.9998 11.9997C14.9998 11.2041 14.6837 10.441 14.1211 9.87843C13.5585 9.31583 12.7955 8.99976 11.9998 8.99976ZM11.9998 16.9997C10.6738 16.9997 9.402 16.4729 8.46433 15.5352C7.52666 14.5975 6.99988 13.3258 6.99988 11.9997C6.99988 10.6737 7.52666 9.4019 8.46433 8.46423C9.402 7.52656 10.6738 6.99979 11.9998 6.99979C13.3259 6.99979 14.5976 7.52656 15.5353 8.46423C16.473 9.4019 16.9998 10.6737 16.9998 11.9997C16.9998 13.3258 16.473 14.5975 15.5353 15.5352C14.5976 16.4729 13.3259 16.9997 11.9998 16.9997ZM11.9998 4.49982C6.99988 4.49982 2.72994 7.60978 0.999959 11.9997C2.72994 16.3897 6.99988 19.4996 11.9998 19.4996C16.9998 19.4996 21.2697 16.3897 22.9997 11.9997C21.2697 7.60978 16.9998 4.49982 11.9998 4.49982Z" fill="white"/>
</g>
</svg>
