<svg width="38" height="38" viewBox="0 0 38 38" fill="none" xmlns="http://www.w3.org/2000/svg">
<g id="iconoir:book-solid">
<path id="Vector" fill-rule="evenodd" clip-rule="evenodd" d="M32.8536 26.4638C32.8517 26.5397 32.8443 26.6153 32.8315 26.6902C32.8649 26.8621 32.8598 27.0392 32.8167 27.2089C32.7736 27.3786 32.6935 27.5367 32.5821 27.6718C32.4708 27.807 32.3309 27.9158 32.1725 27.9905C32.0142 28.0652 31.8412 28.104 31.6661 28.1041H9.49951C9.2396 28.1041 8.98224 28.1553 8.74212 28.2547C8.50199 28.3542 8.28381 28.5 8.10003 28.6838C7.91625 28.8675 7.77046 29.0857 7.671 29.3259C7.57154 29.566 7.52035 29.8233 7.52035 30.0832C7.52035 30.3432 7.57154 30.6005 7.671 30.8406C7.77046 31.0808 7.91625 31.2989 8.10003 31.4827C8.28381 31.6665 8.50199 31.8123 8.74212 31.9118C8.98224 32.0112 9.2396 32.0624 9.49951 32.0624H31.6661C31.9811 32.0624 32.2831 32.1875 32.5058 32.4102C32.7285 32.6329 32.8536 32.935 32.8536 33.2499C32.8536 33.5649 32.7285 33.8669 32.5058 34.0896C32.2831 34.3123 31.9811 34.4374 31.6661 34.4374H9.49951C8.34472 34.4374 7.23722 33.9787 6.42065 33.1621C5.60409 32.3455 5.14535 31.238 5.14535 30.0832V7.91661C5.14535 6.76182 5.60409 5.65432 6.42065 4.83776C7.23722 4.02119 8.34472 3.56245 9.49951 3.56245H30.7161C31.8973 3.56245 32.8536 4.51879 32.8536 5.69995V26.4638ZM14.2495 9.89578C13.9346 9.89578 13.6325 10.0209 13.4098 10.2436C13.1871 10.4663 13.062 10.7683 13.062 11.0833C13.062 11.3982 13.1871 11.7003 13.4098 11.923C13.6325 12.1457 13.9346 12.2708 14.2495 12.2708H23.7495C24.0644 12.2708 24.3665 12.1457 24.5892 11.923C24.8119 11.7003 24.937 11.3982 24.937 11.0833C24.937 10.7683 24.8119 10.4663 24.5892 10.2436C24.3665 10.0209 24.0644 9.89578 23.7495 9.89578H14.2495Z" fill="white"/>
</g>
</svg>
