<svg width="20" height="20" viewBox="0 0 20 20" fill="none" xmlns="http://www.w3.org/2000/svg">
<g id="bxs:edit">
<rect width="19.1068" height="19.1068" transform="scale(1.04675)" fill="#ECF0F1"/>
<path id="Vector" d="M15.8236 1.6767L18.3237 4.17671L16.4178 6.08339L13.9178 3.58337L15.8236 1.6767ZM6.66692 13.3334H9.16694L15.2395 7.26089L12.7395 4.76088L6.66692 10.8334V13.3334Z" fill="#808080"/>
<path id="Vector_2" d="M15.8338 15.8335H6.79871C6.77704 15.8335 6.75454 15.8418 6.73287 15.8418C6.70537 15.8418 6.67787 15.8343 6.64954 15.8335H4.16703V4.16677H9.87289L11.5396 2.5001H4.16703C3.24786 2.5001 2.50035 3.24677 2.50035 4.16677V15.8335C2.50035 16.7535 3.24786 17.5002 4.16703 17.5002H15.8338C16.2758 17.5002 16.6997 17.3246 17.0123 17.012C17.3248 16.6995 17.5004 16.2755 17.5004 15.8335V8.61013L15.8338 10.2768V15.8335Z" fill="#808080"/>
</g>
</svg>
