<svg width="24" height="24" viewBox="0 0 24 24" fill="none" xmlns="http://www.w3.org/2000/svg">
<g id="mdi:eye">
<path id="Vector" d="M11.9998 9.00001C11.2042 9.00001 10.4411 9.31607 9.87853 9.87867C9.31593 10.4413 8.99986 11.2043 8.99986 12C8.99986 12.7956 9.31593 13.5587 9.87853 14.1213C10.4411 14.6839 11.2042 14.9999 11.9998 14.9999C12.7955 14.9999 13.5585 14.6839 14.1211 14.1213C14.6837 13.5587 14.9998 12.7956 14.9998 12C14.9998 11.2043 14.6837 10.4413 14.1211 9.87867C13.5585 9.31607 12.7955 9.00001 11.9998 9.00001ZM11.9998 16.9999C10.6738 16.9999 9.402 16.4731 8.46433 15.5355C7.52666 14.5978 6.99988 13.326 6.99988 12C6.99988 10.6739 7.52666 9.40215 8.46433 8.46448C9.402 7.52681 10.6738 7.00003 11.9998 7.00003C13.3259 7.00003 14.5976 7.52681 15.5353 8.46448C16.473 9.40215 16.9998 10.6739 16.9998 12C16.9998 13.326 16.473 14.5978 15.5353 15.5355C14.5976 16.4731 13.3259 16.9999 11.9998 16.9999ZM11.9998 4.50006C6.99988 4.50006 2.72994 7.61002 0.999959 12C2.72994 16.3899 6.99988 19.4999 11.9998 19.4999C16.9998 19.4999 21.2697 16.3899 22.9997 12C21.2697 7.61002 16.9998 4.50006 11.9998 4.50006Z" fill="white"/>
</g>
</svg>
