<svg width="61" height="61" viewBox="0 0 61 61" fill="none" xmlns="http://www.w3.org/2000/svg">
<g id="Group">
<path id="Vector" d="M16.0099 36.2962C14.7448 36.2981 13.4954 36.5761 12.3488 37.1108C11.2022 37.6455 10.186 38.424 9.3713 39.392C8.55657 40.36 7.96287 41.4942 7.63162 42.7154C7.30038 43.9366 7.23957 45.2154 7.45344 46.4626C7.66732 47.7097 8.15072 48.8951 8.86992 49.9361C9.58912 50.9771 10.5268 51.8486 11.6175 52.4897C12.7082 53.1308 13.9256 53.5262 15.1848 53.6481C16.444 53.7701 17.7147 53.6157 18.9081 53.1958" stroke="url(#paint0_linear_0_263)" stroke-width="3" stroke-linecap="round" stroke-linejoin="round"/>
<path id="Vector_2" d="M8.07722 40.9493C6.34284 40.1142 4.84367 38.8602 3.71502 37.3006C2.58636 35.741 1.86375 33.9249 1.6124 32.0161C1.36105 30.1073 1.58887 28.1659 2.2753 26.3672C2.96173 24.5685 4.08516 22.9691 5.5442 21.7133M5.63115 21.4785C4.68067 20.0559 4.26408 18.3429 4.45512 16.6426C4.64617 14.9423 5.43254 13.3645 6.67501 12.1884C7.91748 11.0124 9.53591 10.3139 11.2438 10.2168C12.9517 10.1196 14.6389 10.63 16.0067 11.6575M16.6964 11.846C16.2341 10.8634 15.9984 9.78951 16.0069 8.70362C16.0153 7.61773 16.2677 6.54762 16.7452 5.57239C17.2228 4.59716 17.9134 3.74174 18.7659 3.06937C19.6185 2.397 20.6112 1.92486 21.6708 1.68785C22.7303 1.45084 23.8296 1.45503 24.8873 1.7001C25.945 1.94517 26.9341 2.42485 27.7815 3.1037C28.629 3.78255 29.313 4.6432 29.7831 5.62204C30.2533 6.60088 30.4974 7.67288 30.4976 8.75881V53.6893C30.4976 55.2268 29.8869 56.7015 28.7999 57.7887C27.7129 58.8759 26.2385 59.4867 24.7012 59.4867C23.1639 59.4867 21.6896 58.8759 20.6026 57.7887C19.5155 56.7015 18.9049 55.2268 18.9049 53.6893M30.4976 16.0057C30.4976 18.312 31.4136 20.524 33.0442 22.1548C34.6747 23.7857 36.8862 24.7019 39.1922 24.7019M44.9886 36.2968C46.2537 36.2987 47.5031 36.5767 48.6497 37.1114C49.7963 37.6461 50.8124 38.4246 51.6272 39.3927C52.4419 40.3607 53.0356 41.4949 53.3668 42.7161C53.6981 43.9373 53.7589 45.2161 53.545 46.4632C53.3311 47.7103 52.8477 48.8958 52.1285 49.9367C51.4093 50.9777 50.4717 51.8492 49.381 52.4903C48.2903 53.1314 47.0729 53.5268 45.8137 53.6488C44.5544 53.7707 43.2838 53.6164 42.0904 53.1965" stroke="url(#paint1_linear_0_263)" stroke-width="3" stroke-linecap="round" stroke-linejoin="round"/>
<path id="Vector_3" d="M52.9216 40.9493C54.656 40.1142 56.1552 38.8602 57.2838 37.3006C58.4125 35.741 59.1351 33.9249 59.3864 32.0161C59.6378 30.1073 59.41 28.1659 58.7235 26.3672C58.0371 24.5685 56.9137 22.9691 55.4546 21.7133M55.3677 21.4785C56.3182 20.0559 56.7348 18.3429 56.5437 16.6426C56.3527 14.9423 55.5663 13.3645 54.3238 12.1884C53.0814 11.0124 51.4629 10.3139 49.755 10.2168C48.0472 10.1196 46.36 10.63 44.9922 11.6575M30.5012 8.75881C30.5014 7.67288 30.7456 6.60088 31.2157 5.62204C31.6858 4.6432 32.3699 3.78255 33.2173 3.1037C34.0647 2.42485 35.0538 1.94517 36.1116 1.7001C37.1693 1.45503 38.2685 1.45084 39.3281 1.68785C40.3876 1.92486 41.3803 2.397 42.2329 3.06937C43.0855 3.74174 43.7761 4.59716 44.2536 5.57239C44.7312 6.54762 44.9835 7.61773 44.992 8.70362C45.0004 9.78951 44.7647 10.8634 44.3024 11.846M42.094 53.6893C42.094 55.2268 41.4833 56.7015 40.3963 57.7887C39.3092 58.8759 37.8349 59.4867 36.2976 59.4867C34.7603 59.4867 33.286 58.8759 32.199 57.7887C31.1119 56.7015 30.5012 55.2268 30.5012 53.6893" stroke="url(#paint2_linear_0_263)" stroke-width="3" stroke-linecap="round" stroke-linejoin="round"/>
</g>
<defs>
<linearGradient id="paint0_linear_0_263" x1="13.1182" y1="36.2962" x2="13.1182" y2="53.6886" gradientUnits="userSpaceOnUse">
<stop stop-color="#A885D8"/>
<stop offset="0.9999" stop-color="#333333"/>
</linearGradient>
<linearGradient id="paint1_linear_0_263" x1="27.5917" y1="1.51314" x2="27.5917" y2="59.4867" gradientUnits="userSpaceOnUse">
<stop stop-color="#A885D8"/>
<stop offset="0.9999" stop-color="#333333"/>
</linearGradient>
<linearGradient id="paint2_linear_0_263" x1="44.9935" y1="1.51314" x2="44.9935" y2="59.4867" gradientUnits="userSpaceOnUse">
<stop stop-color="#A885D8"/>
<stop offset="0.9999" stop-color="#333333"/>
</linearGradient>
</defs>
</svg>
