<svg width="22" height="16" viewBox="0 0 22 16" fill="none" xmlns="http://www.w3.org/2000/svg">
<g id="Group">
<path id="Vector" d="M10.9541 1C4.6471 1 1.5871 6.683 1.0441 7.808C1.01508 7.86784 1 7.93349 1 8C1 8.06651 1.01508 8.13216 1.0441 8.192C1.5861 9.317 4.6461 15 10.9541 15C17.2621 15 20.3211 9.317 20.8641 8.192C20.8931 8.13216 20.9082 8.06651 20.9082 8C20.9082 7.93349 20.8931 7.86784 20.8641 7.808C20.3221 6.683 17.2621 1 10.9541 1Z" stroke="black" stroke-opacity="0.5" stroke-width="2" stroke-linecap="round" stroke-linejoin="round"/>
<path id="Vector_2" d="M10.9541 11C12.611 11 13.9541 9.65685 13.9541 8C13.9541 6.34315 12.611 5 10.9541 5C9.29725 5 7.9541 6.34315 7.9541 8C7.9541 9.65685 9.29725 11 10.9541 11Z" stroke="black" stroke-opacity="0.5" stroke-width="2" stroke-linecap="round" stroke-linejoin="round"/>
</g>
</svg>
