<svg width="16" height="16" viewBox="0 0 16 16" fill="none" xmlns="http://www.w3.org/2000/svg">
<g id="bxs:edit">
<rect width="16" height="16" fill="#ECF0F1"/>
<path id="Vector" d="M12.6593 1.34134L14.6593 3.34134L13.1347 4.86667L11.1347 2.86667L12.6593 1.34134ZM5.33398 10.6667H7.33398L12.192 5.80867L10.192 3.80867L5.33398 8.66667V10.6667Z" fill="#808080"/>
<path id="Vector_2" d="M12.6667 12.6667H5.43867C5.42133 12.6667 5.40333 12.6733 5.386 12.6733C5.364 12.6733 5.342 12.6673 5.31933 12.6667H3.33333V3.33333H7.898L9.23133 2H3.33333C2.598 2 2 2.59733 2 3.33333V12.6667C2 13.4027 2.598 14 3.33333 14H12.6667C13.0203 14 13.3594 13.8595 13.6095 13.6095C13.8595 13.3594 14 13.0203 14 12.6667V6.888L12.6667 8.22133V12.6667Z" fill="#808080"/>
</g>
</svg>
